<?xml version="1.0" encoding="utf-8"?>
<!-- Generator: Adobe Illustrator 21.1.0, SVG Export Plug-In . SVG Version: 6.00 Build 0)  -->
<svg version="1.1" id="Layer_1" xmlns="http://www.w3.org/2000/svg" xmlns:xlink="http://www.w3.org/1999/xlink" x="0px" y="0px"
	 viewBox="0 0 265 107" style="enable-background:new 0 0 265 107;" xml:space="preserve">
<style type="text/css">
	.st0{fill:#C3161C;}
	.st1{fill-rule:evenodd;clip-rule:evenodd;fill:#BBBDBF;}
	.st2{fill:#323031;}
	.st3{fill:#FFFFFF;}
	.st4{fill-rule:evenodd;clip-rule:evenodd;fill:#FFFFFF;}
	.st5{fill:#BBBDBF;}
</style>
<g>
	<g>
		<path class="st0" d="M152.8,5.1v37.2h-5V25.4h-20.1v16.9h-5V5.1h5v16.6h20.1V5.1H152.8z"/>
		<path class="st0" d="M194.6,23.7c0,2.8-0.4,5.3-1.3,7.6c-0.9,2.3-2.1,4.2-3.7,5.9s-3.5,2.9-5.8,3.8c-2.3,0.9-4.8,1.3-7.5,1.3
			h-13.9V5.1h13.9c2.7,0,5.2,0.4,7.5,1.3s4.2,2.2,5.8,3.8c1.6,1.6,2.9,3.6,3.7,5.9C194.1,18.4,194.6,21,194.6,23.7z M189.4,23.7
			c0-2.3-0.3-4.3-0.9-6.1c-0.6-1.8-1.5-3.3-2.6-4.6c-1.1-1.2-2.5-2.2-4.2-2.9c-1.6-0.7-3.4-1-5.5-1h-8.9v29h8.9c2,0,3.8-0.3,5.5-1
			c1.6-0.7,3-1.6,4.2-2.8c1.1-1.2,2-2.8,2.6-4.6C189.1,28.1,189.4,26,189.4,23.7z"/>
		<path class="st0" d="M206.9,9.2v13h15.3v4.1h-15.3v16h-5V5.1h22.9v4.1H206.9z"/>
		<path class="st0" d="M257,34.6c0.3,0,0.5,0.1,0.7,0.3l2,2.2c-1.5,1.8-3.4,3.1-5.5,4.1c-2.2,1-4.8,1.5-7.9,1.5
			c-2.7,0-5.1-0.5-7.3-1.4c-2.2-0.9-4-2.2-5.6-3.9c-1.5-1.7-2.7-3.7-3.6-6c-0.8-2.3-1.3-4.9-1.3-7.7s0.4-5.4,1.3-7.7
			c0.9-2.3,2.1-4.3,3.7-6c1.6-1.7,3.5-3,5.8-3.9c2.2-0.9,4.7-1.4,7.4-1.4c2.6,0,5,0.4,7,1.3c2,0.8,3.8,2,5.3,3.5l-1.7,2.3
			c-0.1,0.2-0.2,0.3-0.4,0.4c-0.2,0.1-0.4,0.2-0.7,0.2c-0.3,0-0.7-0.2-1.1-0.5c-0.5-0.3-1-0.7-1.8-1.1c-0.7-0.4-1.6-0.8-2.7-1.1
			c-1.1-0.3-2.4-0.5-4-0.5c-1.9,0-3.7,0.3-5.3,1c-1.6,0.7-3,1.6-4.1,2.9s-2,2.8-2.7,4.6c-0.6,1.8-1,3.9-1,6.2c0,2.3,0.3,4.4,1,6.2
			c0.7,1.8,1.6,3.4,2.7,4.6c1.1,1.3,2.5,2.2,4.1,2.9c1.6,0.7,3.3,1,5.1,1c1.1,0,2.1-0.1,3-0.2c0.9-0.1,1.7-0.3,2.5-0.6
			c0.8-0.3,1.5-0.6,2.1-1.1c0.6-0.4,1.3-0.9,1.9-1.5C256.4,34.8,256.7,34.6,257,34.6z"/>
	</g>
	<g>
		<path class="st0" d="M166.1,103.1H155c-2.1,0-3.5-0.8-4.4-2.3l-8.8-15.3c-0.4-0.7-0.9-1.1-1.4-1.4c-0.5-0.3-1.2-0.5-2.2-0.5h-3.1
			v19.6h-12.3V50.2H140c3.8,0,7.1,0.4,9.8,1.2c2.7,0.8,4.9,1.9,6.6,3.3c1.7,1.4,2.9,3.1,3.7,5c0.8,1.9,1.2,4,1.2,6.2
			c0,1.7-0.2,3.3-0.7,4.9s-1.1,2.9-2,4.2c-0.9,1.3-2,2.4-3.3,3.5c-1.3,1-2.8,1.9-4.6,2.5c0.8,0.4,1.5,0.9,2.2,1.5
			c0.7,0.6,1.3,1.3,1.9,2.2L166.1,103.1z M140,75.1c1.7,0,3.1-0.2,4.3-0.6c1.2-0.4,2.1-1,2.9-1.8c0.8-0.7,1.3-1.6,1.6-2.6
			c0.3-1,0.5-2.1,0.5-3.2c0-2.3-0.8-4.1-2.3-5.4c-1.5-1.3-3.9-2-7-2h-4.9v15.7H140z"/>
		<path class="st0" d="M182.9,59.7V72h16.6v9.1h-16.6v12.6h21.7v9.4h-34V50.2h34v9.4H182.9z"/>
		<path class="st0" d="M260.1,76.6c0,3.8-0.7,7.3-2,10.6c-1.3,3.2-3.2,6-5.6,8.4c-2.4,2.4-5.3,4.2-8.7,5.5c-3.4,1.3-7.1,2-11.2,2
			h-20.5V50.2h20.5c4.1,0,7.9,0.7,11.2,2c3.4,1.3,6.3,3.2,8.7,5.5c2.4,2.3,4.2,5.1,5.6,8.4C259.4,69.3,260.1,72.8,260.1,76.6z
			 M247.5,76.6c0-2.6-0.3-5-1-7.1c-0.7-2.1-1.7-3.9-2.9-5.4c-1.3-1.5-2.8-2.6-4.7-3.4c-1.8-0.8-3.9-1.2-6.3-1.2h-8.2v34h8.2
			c2.3,0,4.4-0.4,6.3-1.2c1.8-0.8,3.4-1.9,4.7-3.4s2.2-3.2,2.9-5.4C247.2,81.6,247.5,79.3,247.5,76.6z"/>
	</g>
	<path class="st1" d="M102.9,54.1c0-4.6-0.6-9-1.8-13.2l0,0c0-0.2-0.1-0.4-0.2-0.6c-1-3.5-2.4-6.9-4.2-10c-1.7-2.6-3.5-4-4.6-4.8
		l-1.3-0.9v15.9l-1.3,0.8l-0.9,0.3v1.2H88h-0.2h-0.6v-1.3v-0.2v-0.1h-1H86h-0.8v-0.4h-0.9v-2.1h-0.6v-0.8h-2.4l-1-0.7v0h0.1
		l-0.1-15.3h-0.1V20h-4.4h-0.3L75,42.5l-0.4,0.1v0.7h-0.5v-1.1h-1v-1.1h-0.4h-1.4v1.1h-0.5v-0.5v-1.4h-0.3v-0.5l-1.1-1.3l-1.1-0.1
		v-0.2c0-0.2-0.2-0.4-0.4-0.4l-3.3-1.2v-0.6h-0.5v-3l-0.4-0.5l-3.8,0.7l-0.4,0.3v8.5h-0.2v0.5H59v-3.1l-3.6,1v-0.1h0.1v-0.2h-0.1
		v-0.1h0.1v-0.2h-0.1v-0.1h0.1v-0.2h-0.1v-0.1h0.1v-0.2h-0.1v-0.1h0.1v-0.2h-0.1v-0.1h0.1v-0.2h-0.1v-0.1V38v-0.1v-0.2v-0.1v-0.2
		v-0.1v-0.2v-0.1v-0.2v-0.1v-0.2V36v-0.2v-0.1v-0.2v-0.1V35v-0.7c0-0.9-6.4-0.6-6.4-0.1V35v0.2v0.1v0.2v0.1V36v0.1v0.2v0.1v0.2v0.1
		v0.2v0.1v0.2v0.1v0.2V38v0.2v0.1v0.2v0.1v0.2v0.1v0.2v0.1v0.2v0.1l-0.1,0.2h0.1v0.1h-0.1v0.2h0.1v0.1h-0.1v0.2h0.1v0.1h-0.1v0.2
		h0.1v0.1h-0.1v0.2h0.1v0.1h-0.1v0.2h0.1V42h-0.1v0.2h0.1v0.1h-0.1v0.2h0.1v0.1h-0.1V43h0.1v0.1h-0.1v0.2h0.1v0.1h-0.1v0.2h0.1v0.1
		h-0.1v0.2h0.1v0.1h-0.1v0.2h0.1v0.1h-0.1v0h-1.1v-5.8h-0.5v-0.6h-0.1H47h-2.4v-1.7L44.3,36h-0.1v-0.9h0.2c0.1,0,0.1-0.1,0.1-0.1
		v-5.3c0-0.3,0-0.4-0.3-0.4c-0.4,0-0.9-0.1-1.3-0.1v0h0c0,0,0.1,0,0.1-0.1c0,0,0-0.1-0.1-0.1h0v-0.4h0c0,0,0.1,0,0.1-0.1
		c0,0,0-0.1-0.1-0.1h0v-0.4h0c0,0,0.1,0,0.1-0.1c0,0,0-0.1-0.1-0.1h0v-0.4h0c0,0,0.1,0,0.1-0.1c0,0,0-0.1-0.1-0.1h0v-2.7
		c0-0.1-0.1-0.1-0.1-0.1c-0.1,0-0.1,0.1-0.1,0.1v2.7h0v0.1h0V28h0v0.1h0v0.1l0,0v0.2l0,0v0h0v0.2l0,0v0.4h0v0.1h0v0l0,0v25.9h35.4
		h24.8C102.9,54.8,102.9,54.5,102.9,54.1z"/>
	<path class="st2" d="M102.9,51.7C102.9,51.5,102.9,52,102.9,51.7L102.9,51.7h-5h-2.3h-0.1h-0.2v-3.1l-0.5-0.4h-0.6h-0.5h-2.1h-0.5
		h-0.8V52l-4-0.2v-8.7h-1.7v-0.2l-0.5-0.7h-0.5h-0.2H83l0,0.2l-0.5,0.5v0.2h-1.7v1.4H80v5.9h-2.1v-7.2l-2.1-2l-10,6.1v0.2l0.1,1v3.1
		h-1.6V52H62V50h-1.8l-0.3-0.7V49h-0.8v0.2l-0.3,0.6h-1v-9l-2.2-2.4h-2.1h-0.2h-1.8v0.6l-4.3,1.8v3h-1.9L44,13.8l-1.3-0.7l-6.6,0
		l-1.5,0.7l-1.3,28.7h-2V30.3H23v13.1h-0.5v-2h-0.7v-1.1c0-0.1-0.1-0.2-0.1-0.2h-1.5V39h-2.5v1.2h-0.7c-0.1,0-0.3,0.1-0.3,0.2v9.9
		h-0.2v-1.3h-3.2V52h-2.1v-3.4v-7c-0.2,0-1.9-1.3-1.9-1.3v-1l-2.2,0c-0.1,0.3-0.2,0.5-0.2,0.8v0.2c0,0,0,0-0.1,0
		c-1,4-1.6,8.1-1.6,12.4c0,0.3,0,0.5,0,0.8H5c0,0.2,0,0.4,0,0.6c0,21.1,13.4,39.2,32.2,46c0.3,0.1,0.6,0.2,0.9,0.3
		c0.4,0.2,0.9,0.3,1.3,0.5c4.6,1.4,9.5,2.2,14.6,2.2c27,0,49-21.9,49-48.9c0-0.2,0-0.4,0-0.6C102.9,53.3,102.9,52,102.9,51.7z"/>
</g>
</svg>
