<?xml version="1.0" standalone="no"?>
<!DOCTYPE svg PUBLIC "-//W3C//DTD SVG 20010904//EN"
 "http://www.w3.org/TR/2001/REC-SVG-20010904/DTD/svg10.dtd">
<svg version="1.0" xmlns="http://www.w3.org/2000/svg"
 width="230.000000pt" height="230.000000pt" viewBox="0 0 230.000000 230.000000"
 preserveAspectRatio="xMidYMid meet">
<metadata>
Created by potrace 1.11, written by Peter Selinger 2001-2013
</metadata>
<g transform="translate(0.000000,230.000000) scale(0.100000,-0.100000)"
fill="#000000" stroke="none">
<path d="M1120 2284 c-126 -34 -222 -112 -261 -213 -26 -65 -34 -183 -17 -251
6 -25 11 -52 12 -60 8 -58 70 -190 126 -264 53 -71 203 -206 229 -206 6 0 11
-4 11 -10 0 -5 5 -10 11 -10 21 0 176 -109 243 -171 84 -78 166 -202 198 -300
32 -96 32 -232 1 -321 -61 -167 -252 -332 -430 -368 -115 -24 -281 18 -380 96
-94 74 -146 160 -182 298 -37 143 -21 282 46 393 36 60 36 76 -1 142 l-14 25
-51 -54 c-99 -103 -154 -261 -150 -430 6 -256 146 -443 400 -535 100 -36 128
-40 259 -40 99 0 127 4 200 29 258 85 483 321 518 541 14 86 6 268 -15 340
-21 73 -79 197 -94 203 -5 2 -9 9 -9 16 0 22 -126 165 -201 228 -71 59 -229
168 -244 168 -7 0 -83 52 -123 84 -48 38 -144 138 -170 177 -72 107 -83 250
-26 332 43 63 126 101 218 101 87 0 173 -25 214 -61 33 -30 62 -87 62 -125 0
-13 5 -30 10 -38 19 -29 27 9 29 127 0 63 4 119 7 124 3 5 -1 11 -8 13 -116
32 -333 43 -418 20z"/>
<path d="M169 2078 c-32 -12 -22 -28 19 -29 53 -1 79 -7 128 -28 54 -24 90
-74 137 -188 40 -95 320 -788 502 -1238 139 -344 157 -386 178 -404 14 -11 20
-11 33 -1 17 15 54 87 54 107 0 7 5 13 10 13 6 0 10 8 10 18 0 10 4 22 9 28 5
5 25 47 46 94 21 47 43 99 51 115 48 108 174 408 174 415 0 5 -18 28 -39 51
-37 38 -61 44 -61 16 0 -7 -13 -44 -29 -82 -15 -39 -54 -133 -86 -210 -31 -77
-66 -160 -78 -185 -19 -44 -20 -45 -30 -20 -5 14 -13 34 -18 45 -18 43 -159
416 -159 421 0 3 -6 20 -14 37 -12 26 -183 474 -232 607 -7 19 -23 60 -34 90
-94 242 -97 270 -38 289 18 5 46 9 61 9 29 -1 56 17 44 28 -9 10 -613 11 -638
2z"/>
<path d="M1612 2072 c-6 -18 -4 -19 63 -25 69 -6 95 -28 89 -75 -4 -38 -109
-343 -143 -417 -5 -11 -19 -45 -30 -76 l-20 -57 45 -41 c25 -23 49 -41 53 -41
5 0 19 26 31 58 13 31 33 80 46 109 13 28 24 55 24 58 0 3 9 25 19 48 11 23
36 83 56 132 102 250 151 305 273 305 22 0 32 5 32 15 0 18 31 16 -274 18
-203 2 -260 -1 -264 -11z"/>
<path d="M1018 1193 c-14 -4 -13 -13 12 -81 25 -71 31 -79 74 -103 57 -31 82
-57 106 -112 l19 -42 35 75 c19 41 35 84 36 95 8 78 -18 116 -100 144 -54 19
-150 31 -182 24z"/>
</g>
</svg>
